<svg width="24" height="25" viewBox="0 0 24 25" fill="none" xmlns="http://www.w3.org/2000/svg">
<g clip-path="url(#clip0_9_644)">
<path d="M15.9473 0.896545C14.7119 0.981993 13.268 1.77275 12.4265 2.80247C11.659 3.7366 11.0275 5.12404 11.2737 6.47237C12.6235 6.51437 14.0182 5.70479 14.8263 4.6577C15.5823 3.68301 16.1544 2.30426 15.9473 0.896545Z" fill="black"/>
<path d="M20.8293 8.67085C19.6432 7.18348 17.9763 6.32031 16.402 6.32031C14.3237 6.32031 13.4446 7.31527 12.0007 7.31527C10.5119 7.31527 9.3808 6.32321 7.5835 6.32321C5.81806 6.32321 3.93821 7.40217 2.74628 9.24726C1.07064 11.8455 1.35739 16.7305 4.0729 20.8913C5.04468 22.3801 6.34233 24.0543 8.0397 24.0688C9.55024 24.0833 9.97603 23.0999 12.0224 23.0898C14.0688 23.0782 14.457 24.0819 15.9646 24.0659C17.6634 24.0529 19.032 22.1977 20.0038 20.7088C20.7005 19.6415 20.9597 19.1042 21.4999 17.8992C17.5707 16.4032 16.9408 10.8157 20.8293 8.67085Z" fill="black"/>
</g>
<defs>
<clipPath id="clip0_9_644">
<rect width="23.1724" height="23.1724" fill="white" transform="translate(0.0172119 0.896545)"/>
</clipPath>
</defs>
</svg>
