<svg width="27" height="28" viewBox="0 0 27 28" fill="none" xmlns="http://www.w3.org/2000/svg">
<g clip-path="url(#clip0_16_1394)">
<path d="M13.5001 1C6.04812 1 0.00012207 6.824 0.00012207 14C0.00012207 21.176 6.04812 27 13.5001 27C16.4779 27 19.2314 26.0701 21.4645 24.4955C22.1742 23.9952 22.8313 23.4297 23.4263 22.8083C25.6446 20.4916 27.0001 17.3973 27.0001 14C27.0001 6.824 20.9521 1 13.5001 1ZM13.5001 24.4C7.54662 24.4 2.70012 19.733 2.70012 14C2.70012 8.267 7.54662 3.6 13.5001 3.6C19.4536 3.6 24.3001 8.267 24.3001 14C24.3001 19.733 19.4536 24.4 13.5001 24.4ZM7.49858 18.2004C7.01376 19.205 8.04638 20.2679 9.06458 19.8122L15.8148 16.7915C16.0724 16.6762 16.2809 16.4736 16.4035 16.2195L19.5017 9.79963C19.9865 8.795 18.9539 7.73214 17.9357 8.18779L11.1855 11.2085C10.9279 11.3238 10.7194 11.5264 10.5967 11.7805L7.49858 18.2004ZM13.5001 12.57C14.3236 12.57 14.9851 13.207 14.9851 14C14.9851 14.793 14.3236 15.43 13.5001 15.43C12.6766 15.43 12.0151 14.793 12.0151 14C12.0151 13.207 12.6766 12.57 13.5001 12.57Z" fill="#7D848D"/>
</g>
<defs>
<clipPath id="clip0_16_1394">
<rect width="26.4828" height="26.4828" fill="white" transform="translate(0.172485 0.93103)"/>
</clipPath>
</defs>
</svg>
