<svg width="24" height="25" viewBox="0 0 24 25" fill="none" xmlns="http://www.w3.org/2000/svg">
<path d="M21.4491 10.5774H12.8274C12.4472 10.5774 12.1394 10.8851 12.1394 11.2653V14.0215C12.1394 14.4017 12.4472 14.7095 12.8274 14.7095H17.6836C17.1541 16.0899 16.1584 17.244 14.8957 17.9771L16.964 21.5616C20.2815 19.6427 22.2457 16.2709 22.2457 12.5009C22.2457 11.9623 22.205 11.5776 22.128 11.1476C22.0646 10.8172 21.7795 10.5774 21.4491 10.5774Z" fill="#167EE6"/>
<path d="M11.6778 18.8461C9.30173 18.8461 7.22888 17.5472 6.11552 15.6282L2.53104 17.692C4.35496 20.8556 7.77198 22.9828 11.6778 22.9828C13.5968 22.9828 15.4026 22.4668 16.964 21.5662V21.5616L14.8957 17.9772C13.9453 18.5293 12.85 18.8461 11.6778 18.8461Z" fill="#12B347"/>
<path d="M16.9595 21.5662V21.5616L14.8912 17.9771C13.9453 18.5248 12.85 18.8461 11.6778 18.8461V22.9827C13.5968 22.9827 15.4026 22.4668 16.9595 21.5662Z" fill="#0F993E"/>
<path d="M5.24656 12.4149C5.24656 11.2427 5.5679 10.1474 6.11553 9.20152L2.53105 7.13773C1.62587 8.6901 1.10992 10.4914 1.10992 12.4149C1.10992 14.3384 1.62587 16.1397 2.53105 17.692L6.11553 15.6282C5.56337 14.6823 5.24656 13.5871 5.24656 12.4149Z" fill="#FFD500"/>
<path d="M11.6778 5.98362C13.2256 5.98362 14.6513 6.53578 15.7601 7.45C16.0362 7.6763 16.4345 7.65819 16.6834 7.40927L18.6341 5.45862C18.9192 5.17349 18.8966 4.70733 18.5933 4.44483C16.7332 2.82457 14.3119 1.84698 11.6778 1.84698C7.77198 1.84698 4.35496 3.97414 2.53104 7.13772L6.11552 9.20151C7.22888 7.28255 9.30173 5.98362 11.6778 5.98362Z" fill="#FF4B26"/>
<path d="M15.7601 7.45C16.0362 7.6763 16.4345 7.65819 16.6834 7.40927L18.634 5.45862C18.9192 5.17349 18.8965 4.70733 18.5933 4.44483C16.7332 2.82457 14.3118 1.84698 11.6778 1.84698V5.98362C13.2256 5.98362 14.6513 6.53125 15.7601 7.45Z" fill="#D93F21"/>
</svg>
