<svg width="24" height="24" viewBox="0 0 24 24" fill="none" xmlns="http://www.w3.org/2000/svg">
<path fill-rule="evenodd" clip-rule="evenodd" d="M17.8868 12.1463C17.5188 12.1463 17.1978 11.8753 17.1448 11.5003C17.0878 11.0893 17.3728 10.7103 17.7838 10.6533C18.8238 10.5073 19.6088 9.60526 19.6108 8.55326C19.6108 7.51026 18.8628 6.62826 17.8318 6.45926C17.4238 6.39226 17.1468 6.00626 17.2138 5.59726C17.2818 5.18826 17.6648 4.91426 18.0758 4.97926C19.8338 5.26826 21.1108 6.77226 21.1108 8.55526C21.1068 10.3503 19.7658 11.8903 17.9908 12.1393C17.9558 12.1443 17.9208 12.1463 17.8868 12.1463" fill="black"/>
<mask id="mask0_1348_46526" style="mask-type:luminance" maskUnits="userSpaceOnUse" x="18" y="14" width="5" height="5">
<path fill-rule="evenodd" clip-rule="evenodd" d="M18.9781 14.0015H22.7721V18.531H18.9781V14.0015Z" fill="white"/>
</mask>
<g mask="url(#mask0_1348_46526)">
<path fill-rule="evenodd" clip-rule="evenodd" d="M20.8614 18.531C20.5594 18.531 20.2744 18.347 20.1604 18.048C20.0124 17.661 20.2074 17.227 20.5944 17.08C21.2724 16.822 21.2724 16.537 21.2724 16.4C21.2724 15.962 20.7154 15.656 19.6174 15.492C19.2084 15.43 18.9254 15.049 18.9864 14.638C19.0474 14.228 19.4274 13.955 19.8404 14.008C22.2634 14.371 22.7724 15.509 22.7724 16.4C22.7724 16.944 22.5584 17.937 21.1284 18.482C21.0404 18.515 20.9504 18.531 20.8614 18.531" fill="black"/>
</g>
<path fill-rule="evenodd" clip-rule="evenodd" d="M11.8867 15.9141C9.5107 15.9141 6.6777 16.2061 6.6777 17.5961C6.6777 18.9971 9.5107 19.2911 11.8867 19.2911C14.2627 19.2911 17.0947 19.0001 17.0947 17.6131C17.0947 16.2091 14.2627 15.9141 11.8867 15.9141M11.8867 20.7911C10.2277 20.7911 5.1777 20.7911 5.1777 17.5961C5.1777 14.4141 10.2277 14.4141 11.8867 14.4141C13.5457 14.4141 18.5947 14.4141 18.5947 17.6131C18.5947 20.7911 13.7217 20.7911 11.8867 20.7911" fill="black"/>
<path fill-rule="evenodd" clip-rule="evenodd" d="M11.8867 5.5C10.1947 5.5 8.8187 6.877 8.8187 8.569C8.8157 9.389 9.1297 10.156 9.7047 10.735C10.2797 11.314 11.0457 11.635 11.8617 11.638L11.8867 12.388V11.638C13.5787 11.638 14.9557 10.262 14.9557 8.569C14.9557 6.877 13.5787 5.5 11.8867 5.5M11.8867 13.138H11.8597C10.6397 13.134 9.4967 12.656 8.6407 11.792C7.7827 10.929 7.3137 9.783 7.3187 8.566C7.3187 6.05 9.3677 4 11.8867 4C14.4067 4 16.4557 6.05 16.4557 8.569C16.4557 11.088 14.4067 13.138 11.8867 13.138" fill="black"/>
<path fill-rule="evenodd" clip-rule="evenodd" d="M5.88569 12.1465C5.85169 12.1465 5.81669 12.1445 5.78169 12.1395C4.00669 11.8905 2.66669 10.3505 2.66269 8.55745C2.66269 6.77245 3.93969 5.26845 5.69769 4.97945C6.11869 4.91345 6.49169 5.19045 6.55969 5.59745C6.62669 6.00645 6.34969 6.39245 5.94169 6.45945C4.91069 6.62845 4.16269 7.51045 4.16269 8.55545C4.16469 9.60545 4.94969 10.5085 5.98869 10.6535C6.39969 10.7105 6.68469 11.0895 6.62769 11.5005C6.57469 11.8755 6.25369 12.1465 5.88569 12.1465" fill="black"/>
<path fill-rule="evenodd" clip-rule="evenodd" d="M2.91209 18.5313C2.82309 18.5313 2.73309 18.5153 2.64509 18.4823C1.21409 17.9363 1.00009 16.9433 1.00009 16.4003C1.00009 15.5103 1.50909 14.3713 3.93309 14.0083C4.34609 13.9563 4.72409 14.2283 4.78609 14.6383C4.84709 15.0493 4.56409 15.4303 4.15509 15.4923C3.05709 15.6563 2.50009 15.9623 2.50009 16.4003C2.50009 16.5373 2.50009 16.8213 3.17909 17.0803C3.56609 17.2273 3.76109 17.6613 3.61309 18.0483C3.49909 18.3473 3.21409 18.5313 2.91209 18.5313" fill="black"/>
</svg>
