<svg width="24" height="24" viewBox="0 0 24 24" fill="none" xmlns="http://www.w3.org/2000/svg">
<path d="M12 22.5C6.20101 22.5 1.5 17.799 1.5 12C1.5 6.20101 6.20101 1.5 12 1.5C17.799 1.5 22.5 6.20101 22.5 12C22.5 17.799 17.799 22.5 12 22.5ZM12 24C18.6274 24 24 18.6274 24 12C24 5.37258 18.6274 0 12 0C5.37258 0 0 5.37258 0 12C0 18.6274 5.37258 24 12 24Z" fill="black"/>
<path d="M15 12C15 13.6569 13.6569 15 12 15C10.3431 15 9 13.6569 9 12C9 10.3431 10.3431 9 12 9C13.6569 9 15 10.3431 15 12Z" fill="black"/>
<path d="M11.9999 6C8.6862 6 5.99991 8.68629 5.99991 12C5.99991 12.4142 5.66412 12.75 5.24991 12.75C4.83569 12.75 4.49991 12.4142 4.49991 12C4.49991 7.85786 7.85777 4.5 11.9999 4.5C12.4141 4.5 12.7499 4.83579 12.7499 5.25C12.7499 5.66421 12.4141 6 11.9999 6ZM18.7499 11.25C19.1641 11.25 19.4999 11.5858 19.4999 12C19.4999 16.1421 16.142 19.5 11.9999 19.5C11.5857 19.5 11.2499 19.1642 11.2499 18.75C11.2499 18.3358 11.5857 18 11.9999 18C15.3136 18 17.9999 15.3137 17.9999 12C17.9999 11.5858 18.3357 11.25 18.7499 11.25Z" fill="black"/>
</svg>
